# xmcd CD database file
#
# Track frame offsets:
#	150
#	12261
#	21857
#	34033
#	45405
#	58155
#	72242
#	87265
#	95506
#	105983
#	117808
#	131625
#	141446
#	150558
#	160520
#	173223
#	183377
#
# Disc length: 2565 seconds
#
# Revision: 0
# Processed by: cddbd v1.5.1PL2 Copyright (c) Steve Scherf et al.
# Submitted via: CDex 1.50
#
DISCID=d70a0311
DTITLE=Brian K Kelly - Old memories
DYEAR=2000
DGENRE=Country
TTITLE0=Jedda
TTITLE1=Home Is Waiting For You
TTITLE2=Goodbye To Stockwhip And Spur
TTITLE3=In Memory Of A Mate
TTITLE4=Old Memories
TTITLE5=Bushmans Prayer
TTITLE6=For Old Times Sake
TTITLE7=Butterfly Memories
TTITLE8=Book Of Ages
TTITLE9=The Cattle Have Gone
TTITLE10=The Broken Down Brumby
TTITLE11=Heartaches Is A Little Country Town
TTITLE12=My Lasting Rose
TTITLE13=Lady Nicotine
TTITLE14=Take Me Back To The Country
TTITLE15=The Old Ex Stockman
TTITLE16=Those Hard Working Hands
EXTD=YEAR: 2000
EXTT0=
EXTT1=
EXTT2=
EXTT3=
EXTT4=
EXTT5=
EXTT6=
EXTT7=
EXTT8=
EXTT9=
EXTT10=
EXTT11=
EXTT12=
EXTT13=
EXTT14=
EXTT15=
EXTT16=
PLAYORDER=
